<svg width="31" height="30" viewBox="0 0 31 30" fill="none" xmlns="http://www.w3.org/2000/svg">
<path fill-rule="evenodd" clip-rule="evenodd" d="M7.5 11C7.23473 11 6.9803 11.1054 6.7928 11.2929C6.60535 11.4803 6.5 11.7347 6.5 12V22C6.5 22.2653 6.60535 22.5197 6.7928 22.7071C6.9803 22.8946 7.23473 23 7.5 23H23.5C23.7651 23 24.0194 22.8947 24.207 22.7071C24.3946 22.5194 24.5 22.265 24.5 22V12C24.5 11.735 24.3946 11.4806 24.207 11.2929C24.0194 11.1053 23.7651 11 23.5 11H21.5V9H23.5C24.2957 9 25.0586 9.31612 25.6212 9.87868C26.1836 10.4412 26.5 11.2042 26.5 12V22C26.5 22.7958 26.1836 23.5588 25.6212 24.1213C25.0586 24.6839 24.2957 25 23.5 25H7.5C6.7044 25 5.94123 24.684 5.37859 24.1213C4.81589 23.5586 4.5 22.7955 4.5 22V12C4.5 11.2045 4.81589 10.4414 5.37859 9.87868C5.94123 9.31603 6.7044 9 7.5 9H9.5V11H7.5Z" fill="white"/>
<path fill-rule="evenodd" clip-rule="evenodd" d="M14.5 19V4H16.5V19H14.5Z" fill="white"/>
<path fill-rule="evenodd" clip-rule="evenodd" d="M14.793 19.7071L9.79297 14.7071L11.2072 13.2928L15.5001 17.5857L19.793 13.2928L21.2072 14.7071L16.2072 19.7071C15.8167 20.0976 15.1835 20.0976 14.793 19.7071Z" fill="white"/>
</svg>
